<svg xmlns="http://www.w3.org/2000/svg" width="800" height="600" viewBox="0 0 800 600">
  <rect width="800" height="600" fill="#f5f5f5"/>
  <g transform="translate(200,100)">
    <rect x="0" y="0" width="400" height="400" rx="10" fill="#ffffff" stroke="#333" stroke-width="2"/>
    <g transform="translate(50,50)">
      <rect x="0" y="0" width="300" height="80" rx="5" fill="#2196F3"/>
      <text x="20" y="45" font-family="Arial" font-size="24" fill="white">E-Commerce Platform</text>
    </g>
    <g transform="translate(50,150)">
      <rect x="0" y="0" width="140" height="180" rx="5" fill="#fff" stroke="#ddd"/>
      <rect x="160" y="0" width="140" height="180" rx="5" fill="#fff" stroke="#ddd"/>
      <rect x="10" y="10" width="120" height="100" rx="5" fill="#e0e0e0"/>
      <rect x="170" y="10" width="120" height="100" rx="5" fill="#e0e0e0"/>
      <text x="20" y="130" font-family="Arial" font-size="14" fill="#333">Product Name</text>
      <text x="20" y="150" font-family="Arial" font-size="16" fill="#E91E63">$99.99</text>
      <text x="180" y="130" font-family="Arial" font-size="14" fill="#333">Product Name</text>
      <text x="180" y="150" font-family="Arial" font-size="16" fill="#E91E63">$149.99</text>
      <rect x="20" y="160" width="100" height="30" rx="15" fill="#4CAF50"/>
      <text x="40" y="180" font-family="Arial" font-size="12" fill="white">Add to Cart</text>
      <rect x="180" y="160" width="100" height="30" rx="15" fill="#4CAF50"/>
      <text x="200" y="180" font-family="Arial" font-size="12" fill="white">Add to Cart</text>
    </g>
    <g transform="translate(50,350)">
      <rect x="0" y="0" width="300" height="30" rx="5" fill="#FF9800"/>
      <text x="110" y="20" font-family="Arial" font-size="14" fill="white">View More Products</text>
    </g>
  </g>
</svg>